# xmcd CD database file
#
# Track frame offsets:
#	150
#	19719
#	45784
#	70183
#	96052
#	116960
#	146816
#	172084
#	192426
#	227615
#	264422
#	279436
#	302515
#
# Disc length: 4570 seconds
#
# Revision: 0
# Processed by: cddbd v1.5.2PL0 Copyright (c) Steve Scherf et al.
# Submitted via: CDex 1.70beta2
#
DISCID=b011d80d
DTITLE=Gene Ammons - Swingin' the Jug
DYEAR=1973
DGENRE=Jazz
TTITLE0=Swingin' the Jug
TTITLE1='Round Midnight
TTITLE2=The Look of Love
TTITLE3=Lover Man
TTITLE4=Just the Blues
TTITLE5=Confessin' the blues
TTITLE6=The black Cat
TTITLE7=Long long Time
TTITLE8=Piece to keep away evil Spirits
TTITLE9=Jug Eyes
TTITLE10=Something
TTITLE11=Hi Ruth!
TTITLE12=Here's that rainy Day
EXTD=YEAR: 1973
EXTT0=
EXTT1=
EXTT2=
EXTT3=
EXTT4=
EXTT5=
EXTT6=
EXTT7=
EXTT8=
EXTT9=
EXTT10=
EXTT11=
EXTT12=
PLAYORDER=
